# xmcd CD database file
#
# Track frame offsets:
#	150
#	14556
#	26858
#	38315
#	51538
#	63958
#	77542
#	90081
#	102947
#	115841
#	128942
#	141899
#	155894
#	168684
#	181162
#	193972
#	207012
#	218541
#
# Disc length: 3073 seconds
#
# Revision: 0
# Processed by: cddbd v1.5.1PL0 Copyright (c) Steve Scherf et al.
# Submitted via: CDex 1.50beta10
#
DISCID=f60bff12
DTITLE=Slim Whitman - Indian Love Song (Mastersong, Aust)
DYEAR=2004
DGENRE=Country
TTITLE0=Indian Love Call
TTITLE1=Wabash Waltz
TTITLE2=How Can I Tell You
TTITLE3=Why
TTITLE4=My Love is Growing Stale
TTITLE5=Tears Can Never Drown the Flame 
TTITLE6=I'm Crying for You
TTITLE7=I'll Do as Much For You Some Day
TTITLE8=Cold Empty Arms
TTITLE9=China Doll
TTITLE10=Stairway to Heaven
TTITLE11=Song of the Old Waterwheel
TTITLE12=Restless Heart
TTITLE13=An A,ateur in Love
TTITLE14=Darlin' Don't Cry
TTITLE15=Birmingham Jail
TTITLE16=Bandera Waltz
TTITLE17=I'm Casting My Lasso Towards the Sky
EXTD=YEAR: 2004
EXTT0=
EXTT1=
EXTT2=
EXTT3=
EXTT4=
EXTT5=
EXTT6=
EXTT7=
EXTT8=
EXTT9=
EXTT10=
EXTT11=
EXTT12=
EXTT13=
EXTT14=
EXTT15=
EXTT16=
EXTT17=
PLAYORDER=
